<?xml version="1.0" standalone="no"?>
<!DOCTYPE svg PUBLIC "-//W3C//DTD SVG 20010904//EN"
 "http://www.w3.org/TR/2001/REC-SVG-20010904/DTD/svg10.dtd">
<svg version="1.0" xmlns="http://www.w3.org/2000/svg"
 width="200.000000pt" height="200.000000pt" viewBox="0 0 200.000000 200.000000"
 preserveAspectRatio="xMidYMid meet">
<metadata>
Created by potrace 1.14, written by Peter Selinger 2001-2017
</metadata>
<g transform="translate(0.000000,200.000000) scale(0.100000,-0.100000)"
fill="#000000" stroke="none">
<path d="M0 1000 l0 -1000 1000 0 1000 0 0 1000 0 1000 -1000 0 -1000 0 0
-1000z m1024 157 c-3 -8 2 -20 11 -27 8 -7 15 -16 15 -21 0 -5 -9 0 -21 12
-17 17 -21 49 -5 49 3 0 3 -6 0 -13z m32 -148 c4 -8 9 -7 15 2 10 17 10 18 43
-64 16 -38 32 -101 37 -140 9 -83 18 -117 30 -117 5 0 16 -18 25 -40 14 -36
44 -56 44 -30 0 6 4 10 9 10 20 0 35 -118 17 -132 -10 -7 63 -47 85 -46 32 2
47 -3 52 -17 5 -11 1 -12 -16 -6 -88 33 -123 35 -83 5 11 -8 16 -14 11 -14 -5
0 -19 10 -32 22 -36 33 -39 13 -4 -21 18 -17 28 -31 24 -31 -15 0 -114 103
-105 109 30 21 9 100 -23 87 -8 -3 -21 2 -30 10 -11 12 -19 13 -29 5 -7 -6
-16 -8 -19 -4 -4 3 -7 1 -7 -6 0 -7 -4 -9 -10 -6 -5 3 -10 -1 -10 -9 0 -9 -4
-16 -9 -16 -5 0 -11 -10 -15 -22 -6 -23 -6 -23 -29 6 -14 17 -42 35 -67 42
-51 15 -56 13 -38 -15 11 -18 10 -23 -7 -36 -19 -16 -19 -16 5 -9 20 5 23 4
13 -7 -17 -17 -16 -31 1 -54 12 -17 16 -17 30 -6 9 8 20 10 24 6 4 -4 1 -10
-5 -12 -7 -3 -13 -8 -13 -12 0 -9 46 -8 56 2 4 4 14 7 23 7 11 0 10 -3 -5 -15
-10 -8 -31 -15 -46 -15 -15 0 -29 -3 -31 -8 -7 -10 30 -85 50 -99 14 -11 15
-13 1 -13 -8 0 -21 8 -29 18 -13 15 -21 29 -49 79 -5 10 -22 48 -39 84 -30 68
-60 104 -48 59 3 -12 1 -27 -4 -34 -5 -6 -15 -19 -22 -29 -8 -11 -19 -16 -30
-12 -14 6 -13 11 13 33 52 46 32 44 -36 -3 -64 -43 -92 -56 -79 -35 3 6 13 10
21 10 8 0 19 11 24 25 12 31 11 133 -1 141 -5 3 -9 11 -9 17 0 7 4 6 10 -3 9
-13 12 -12 25 4 8 11 15 27 15 36 0 22 20 40 44 40 12 0 26 4 33 8 18 11 47
130 35 145 -5 7 -12 24 -16 40 -5 23 -3 27 14 27 27 0 37 -28 55 -150 8 -54
19 -110 25 -125 9 -25 9 -27 -10 -22 -24 6 -34 -7 -22 -29 8 -13 10 -14 21 0
7 8 18 13 26 10 9 -4 7 18 -10 84 -27 105 -40 240 -26 262 6 8 13 11 17 7 4
-4 13 1 20 11 12 15 15 15 23 2 9 -12 11 -12 17 3 7 19 20 22 30 6z m-36 -505
c0 -2 -9 -4 -20 -4 -11 0 -20 4 -20 9 0 5 9 7 20 4 11 -3 20 -7 20 -9z m55 6
c3 -5 -1 -10 -10 -10 -9 0 -13 5 -10 10 3 6 8 10 10 10 2 0 7 -4 10 -10z m121
-46 c25 -26 42 -49 39 -52 -4 -4 -22 11 -41 33 -19 22 -41 39 -49 37 -10 -2
-13 3 -9 13 3 8 8 15 10 15 2 0 25 -21 50 -46z m-331 -14 c-10 -11 -22 -17
-28 -13 -6 3 0 10 12 15 17 6 21 13 16 30 -5 21 -5 21 5 5 9 -15 8 -22 -5 -37z
m-215 -34 c0 -23 -17 -35 -55 -41 -37 -5 -41 -3 -62 30 -26 41 -17 47 15 10
22 -26 60 -36 45 -12 -14 22 -12 40 5 54 14 10 20 9 35 -8 9 -12 17 -26 17
-33z m140 34 c0 12 4 11 15 -4 9 -12 27 -19 45 -19 18 0 29 -5 27 -11 -2 -6
-16 -10 -31 -8 -16 2 -29 -3 -32 -13 -3 -8 -11 -15 -16 -15 -6 0 -7 7 -4 16 5
12 2 15 -10 10 -12 -5 -15 -2 -10 10 4 11 2 15 -7 11 -12 -4 -14 9 -8 42 1 3
8 -4 16 -15 11 -14 15 -16 15 -4z m290 10 c0 -5 -2 -10 -4 -10 -3 0 -8 5 -11
10 -3 6 -1 10 4 10 6 0 11 -4 11 -10z m29 -59 c-6 -16 -19 -31 -30 -34 -17 -5
-19 -9 -10 -25 13 -25 4 -34 -21 -21 -18 10 -18 11 2 39 12 17 19 34 16 39 -4
5 6 14 21 19 16 6 29 11 30 11 1 1 -3 -12 -8 -28z m356 19 c19 -8 19 -9 -2 -9
-12 -1 -25 4 -28 9 -7 12 2 12 30 0z m-557 -35 c0 -20 -5 -24 -24 -23 -13 1
-24 5 -24 9 0 5 34 34 46 38 1 1 2 -10 2 -24z m403 -12 c41 -17 119 -27 119
-15 0 6 -12 12 -27 14 -14 2 -28 9 -31 16 -3 10 6 9 34 -3 22 -10 61 -20 88
-23 27 -4 51 -13 54 -19 2 -7 -3 -13 -12 -13 -9 0 -16 5 -16 10 0 6 -7 10 -16
10 -11 0 -14 -6 -9 -20 6 -20 -2 -24 -42 -23 -7 1 -13 -4 -13 -9 0 -16 -28
-39 -35 -28 -3 5 -11 10 -17 10 -6 0 -5 -7 3 -17 13 -15 11 -16 -14 -11 -18 3
-30 1 -33 -7 -5 -12 -9 -13 -54 -18 -14 -1 -35 -8 -48 -15 -12 -7 -26 -10 -31
-7 -5 3 -22 0 -38 -6 -32 -14 -143 -12 -157 2 -14 13 -29 11 -20 -2 4 -8 0 -8
-15 0 -14 8 -21 8 -21 1 0 -15 -38 -12 -65 6 -15 10 -25 12 -25 5 0 -6 -5 -11
-11 -11 -5 0 -8 4 -4 9 3 5 1 12 -5 16 -5 3 -10 1 -10 -4 0 -6 -12 -11 -26
-11 -21 0 -24 3 -19 21 6 19 5 19 -17 7 -12 -7 -26 -17 -30 -23 -4 -5 -8 -6
-8 -1 0 5 -7 3 -15 -4 -9 -8 -15 -8 -15 -2 0 6 6 12 13 15 10 4 10 7 0 18 -10
10 -16 10 -25 1 -9 -9 -15 -9 -25 0 -8 6 -27 11 -42 10 -21 0 -30 5 -34 20 -6
20 -22 21 -71 2 -9 -3 -16 -1 -16 5 0 6 7 11 16 11 9 0 22 7 29 16 10 14 15
14 32 3 17 -10 27 -10 48 -1 14 7 31 12 38 11 7 0 4 -4 -6 -7 -16 -7 -16 -9
-3 -27 14 -19 17 -19 44 -4 26 14 30 14 52 0 13 -9 21 -11 17 -4 -5 7 1 21 13
33 27 27 32 25 20 -6 -14 -37 -13 -49 5 -34 8 7 15 18 15 25 0 8 8 11 19 8 13
-3 21 2 25 15 4 11 16 22 26 25 27 7 25 -7 -2 -26 l-23 -16 25 -2 c14 -1 32
-2 40 -3 8 -1 16 -9 18 -19 4 -22 -26 -23 -58 0 -17 12 -25 13 -28 5 -2 -7 -8
-10 -13 -6 -5 3 -9 1 -9 -5 0 -16 18 -22 23 -9 3 9 10 7 27 -7 17 -16 33 -19
74 -17 28 2 55 8 61 13 5 5 19 9 32 9 13 0 23 4 23 8 0 4 14 23 30 42 17 19
30 31 29 25 -3 -22 2 -35 12 -35 6 0 8 9 4 20 -5 14 -2 20 10 20 9 0 14 -4 11
-9 -3 -5 3 -11 14 -14 11 -3 23 -1 26 4 3 6 11 5 20 -2 22 -18 16 2 -6 21 -13
11 -17 21 -11 25 6 3 40 -15 76 -40 41 -28 61 -38 53 -25 -7 11 -16 20 -20 20
-12 0 -88 71 -88 83 0 5 8 4 18 -5 9 -8 29 -19 43 -25z m-281 -8 c-7 -9 -15
-13 -17 -11 -7 7 7 26 19 26 6 0 6 -6 -2 -15z m-210 -5 c0 -5 -11 -10 -25 -10
-14 0 -25 5 -25 10 0 6 11 10 25 10 14 0 25 -4 25 -10z m301 -11 c-13 -11 -26
-17 -29 -14 -7 6 29 34 43 34 6 0 -1 -9 -14 -20z m-551 6 c0 -9 -40 -45 -50
-45 -5 0 -14 10 -21 21 -10 20 -9 21 10 16 11 -3 21 -1 21 4 0 5 9 9 20 9 11
0 20 -2 20 -5z m30 -15 c0 -5 -4 -10 -10 -10 -5 0 -10 5 -10 10 0 6 5 10 10
10 6 0 10 -4 10 -10z m1087 -6 c-3 -3 -12 -4 -19 -1 -8 3 -5 6 6 6 11 1 17 -2
13 -5z m-747 -24 c0 -5 -4 -10 -10 -10 -5 0 -10 5 -10 10 0 6 5 10 10 10 6 0
10 -4 10 -10z m-450 -14 c-6 -8 -18 -12 -26 -9 -8 3 -14 -1 -14 -8 0 -7 -3 -9
-6 -6 -11 11 17 37 38 37 17 0 18 -3 8 -14z m95 -36 c-3 -5 -10 -10 -16 -10
-5 0 -9 5 -9 10 0 6 7 10 16 10 8 0 12 -4 9 -10z"/>
<path d="M1010 615 c0 -2 10 -10 23 -16 20 -11 21 -11 8 4 -13 16 -31 23 -31
12z"/>
<path d="M1392 326 c1 -10 8 -17 13 -17 15 1 12 24 -3 29 -9 3 -13 -2 -10 -12z"/>
<path d="M1278 290 c-19 -21 -12 -36 9 -18 10 8 17 8 25 0 22 -22 29 -12 11
13 -21 29 -23 29 -45 5z"/>
<path d="M1207 289 c-9 -5 -22 -7 -27 -4 -6 3 -10 1 -10 -5 0 -15 62 -8 68 8
4 14 -7 15 -31 1z"/>
<path d="M1125 269 c-11 -17 1 -21 15 -4 8 9 8 15 2 15 -6 0 -14 -5 -17 -11z"/>
<path d="M1111 213 c7 -12 15 -20 18 -17 3 2 -3 12 -13 22 -17 16 -18 16 -5
-5z"/>
</g>
</svg>
